<svg width="30" height="30" viewBox="0 0 30 30" fill="none" xmlns="http://www.w3.org/2000/svg">
<path opacity="0.504781" fill-rule="evenodd" clip-rule="evenodd" d="M30 15C30 23.2843 23.2843 30 15 30C6.71573 30 0 23.2843 0 15C0 6.71573 6.71573 0 15 0C23.2843 0 30 6.71573 30 15ZM23.9529 14.5439H21.4417V11.9105C21.4417 11.7096 21.2863 11.5462 21.0951 11.5462H20.38C20.1875 11.5462 20.032 11.7096 20.032 11.9105V14.5439H17.5209C17.3297 14.5439 17.1736 14.7076 17.1736 14.9089V15.659C17.1736 15.8602 17.3297 16.0233 17.5209 16.0233H20.032V18.6581C20.032 18.8593 20.1875 19.0224 20.38 19.0224H21.0951C21.2863 19.0224 21.4417 18.8593 21.4417 18.6581V16.0229H23.9529C24.1441 16.0229 24.3002 15.8599 24.3002 15.6586V14.9086C24.3002 14.7073 24.1441 14.5439 23.9529 14.5439ZM14.4976 15.7088C14.506 15.8855 14.986 16.4609 15.5142 16.8533C16.746 17.7674 17.205 18.664 17.2053 20.1616C17.2053 21.7224 16.0731 23.0745 14.3221 23.6078C13.7605 23.7782 13.1531 23.8645 12.516 23.8645C11.8069 23.8645 11.124 23.7786 10.4885 23.6103C9.25734 23.2842 8.34641 22.6667 7.9222 21.8707C7.73935 21.5264 7.64608 21.1599 7.64608 20.7791C7.64608 20.3875 7.73567 19.9909 7.91151 19.5985C8.58643 18.09 10.3642 17.0763 12.3338 17.0763H12.3906C12.2301 16.781 12.1523 16.4756 12.1523 16.153C12.1523 15.9928 12.1726 15.8294 12.2131 15.6635C10.1469 15.6137 8.60114 14.0274 8.60114 11.9344C8.60114 10.4571 9.72701 9.01801 11.3369 8.43558C11.819 8.26166 12.31 8.17225 12.7934 8.17225H17.2113C17.3621 8.17225 17.4945 8.27464 17.5416 8.42471C17.5884 8.57514 17.5369 8.7396 17.4142 8.83182L16.4264 9.58256C16.3679 9.62744 16.2961 9.65129 16.2229 9.65129H15.8688C16.3251 10.2256 16.5932 11.0434 16.5932 11.9638C16.5932 12.9789 16.1032 13.9397 15.2133 14.6705C14.525 15.2329 14.4976 15.3869 14.4976 15.7088ZM9.9346 20.2816C9.9346 19.1921 11.254 18.2366 12.758 18.2366H12.7984C13.1257 18.2408 13.4449 18.2913 13.7458 18.3881C13.8415 18.4573 13.9341 18.5235 14.0232 18.5872L14.0246 18.5882L14.0443 18.6023L14.0464 18.6038C14.7419 19.1009 15.2014 19.4293 15.3293 19.9562C15.3594 20.0891 15.3744 20.222 15.3744 20.3506C15.3744 21.7073 14.41 22.3949 12.5069 22.3949C11.0645 22.3949 9.9346 21.4671 9.9346 20.2816ZM12.1917 9.55731C11.846 9.55731 11.5382 9.70599 11.3032 9.98756C10.9395 10.4227 10.7857 11.1117 10.8816 11.8783C11.0525 13.2493 12.0068 14.4341 12.9632 14.465H12.9789H12.9796C13.3393 14.465 13.6428 14.3163 13.8785 14.0341C14.2469 13.5936 14.41 12.8709 14.3134 12.1023C14.1416 10.7295 13.2073 9.58817 12.2308 9.55801L12.1917 9.55731Z" fill="#9B9DA0"/>
</svg>
