<svg width="30" height="30" viewBox="0 0 30 30" fill="none" xmlns="http://www.w3.org/2000/svg">
<path opacity="0.504781" fill-rule="evenodd" clip-rule="evenodd" d="M15 30C23.2843 30 30 23.2843 30 15C30 6.71573 23.2843 0 15 0C6.71573 0 0 6.71573 0 15C0 23.2843 6.71573 30 15 30ZM9.72995 12.8474H12.095V20.0718H9.72995V12.8474ZM12.2507 10.6126C12.2354 9.90429 11.7372 9.36477 10.9281 9.36477C10.119 9.36477 9.5901 9.90429 9.5901 10.6126C9.5901 11.3063 10.1034 11.8614 10.8974 11.8614H10.9125C11.7372 11.8614 12.2507 11.3063 12.2507 10.6126ZM17.9011 12.6778C19.4574 12.6778 20.6242 13.7105 20.6242 15.9296L20.6241 20.0718H18.2591V16.2067C18.2591 15.2359 17.9169 14.5735 17.0608 14.5735C16.4074 14.5735 16.0182 15.0201 15.8473 15.4514C15.7847 15.606 15.7694 15.8214 15.7694 16.0373V20.072H13.4041C13.4041 20.072 13.4352 13.5255 13.4041 12.8476H15.7694V13.8709C16.0833 13.379 16.6455 12.6778 17.9011 12.6778Z" fill="#9B9DA0"/>
</svg>
