<svg width="30" height="30" viewBox="0 0 30 30" fill="none" xmlns="http://www.w3.org/2000/svg">
<path opacity="0.504781" fill-rule="evenodd" clip-rule="evenodd" d="M15 30C23.2843 30 30 23.2843 30 15C30 6.71573 23.2843 0 15 0C6.71573 0 0 6.71573 0 15C0 23.2843 6.71573 30 15 30ZM14.9423 13.963L14.9113 13.444C14.8185 12.0987 15.6337 10.87 16.9238 10.3933C17.3985 10.2239 18.2035 10.2027 18.7298 10.351C18.9362 10.4145 19.3284 10.6264 19.607 10.817L20.1127 11.1666L20.67 10.9865C20.9796 10.8912 21.3924 10.7323 21.5782 10.6264C21.7536 10.531 21.9084 10.4781 21.9084 10.5099C21.9084 10.6899 21.5266 11.3043 21.2066 11.6433C20.7732 12.1199 20.897 12.1623 21.7743 11.8445C22.3006 11.6644 22.3109 11.6644 22.2077 11.8657C22.1458 11.9716 21.8259 12.3424 21.4853 12.6813C20.9074 13.2639 20.8764 13.3275 20.8764 13.8147C20.8764 14.5668 20.5255 16.1345 20.1746 16.9925C19.5245 18.6025 18.1312 20.2656 16.738 21.1024C14.7772 22.2782 12.1662 22.5747 9.96796 21.8862C9.23523 21.6532 7.97617 21.06 7.97617 20.9541C7.97617 20.9223 8.35801 20.8799 8.82242 20.8694C9.79252 20.8482 10.7626 20.5728 11.5882 20.0855L12.1455 19.7465L11.5057 19.5241C10.5975 19.2063 9.7822 18.4754 9.5758 17.7869C9.51388 17.5645 9.53452 17.5539 10.1124 17.5539L10.711 17.5433L10.2053 17.2997C9.60676 16.9925 9.05979 16.4735 8.79146 15.9438C8.59538 15.5625 8.34769 14.5986 8.41994 14.5244C8.44058 14.4926 8.6573 14.5562 8.90498 14.6409C9.61708 14.9058 9.70996 14.8422 9.29715 14.3973C8.52314 13.5923 8.28577 12.3953 8.6573 11.2619L8.83274 10.7535L9.51388 11.442C10.9071 12.8296 12.548 13.6558 14.4263 13.8995L14.9423 13.963Z" fill="#9B9DA0"/>
</svg>
